<mxfile host="app.diagrams.net" modified="2023-12-06T07:29:25.918Z" agent="Mozilla/5.0 (Windows NT 10.0; Win64; x64) AppleWebKit/537.36 (KHTML, like Gecko) Chrome/119.0.0.0 Safari/537.36" etag="w3TyT70XGddFU1EFbq3t" version="22.1.5" type="device">
  <diagram id="C5RBs43oDa-KdzZeNtuy" name="Page-1">
    <mxGraphModel dx="1707" dy="446" grid="1" gridSize="10" guides="1" tooltips="1" connect="1" arrows="1" fold="1" page="1" pageScale="1" pageWidth="827" pageHeight="1169" math="0" shadow="0">
      <root>
        <mxCell id="WIyWlLk6GJQsqaUBKTNV-0" />
        <mxCell id="WIyWlLk6GJQsqaUBKTNV-1" parent="WIyWlLk6GJQsqaUBKTNV-0" />
        <mxCell id="I7HHmySDdxY6au0NM-Y0-1" value="" style="edgeStyle=orthogonalEdgeStyle;rounded=0;orthogonalLoop=1;jettySize=auto;html=1;labelBackgroundColor=none;strokeColor=#23445D;fontColor=default;" edge="1" parent="WIyWlLk6GJQsqaUBKTNV-1" source="WIyWlLk6GJQsqaUBKTNV-3">
          <mxGeometry relative="1" as="geometry">
            <mxPoint x="250" y="190" as="targetPoint" />
          </mxGeometry>
        </mxCell>
        <mxCell id="WIyWlLk6GJQsqaUBKTNV-3" value="&lt;font style=&quot;font-size: 23px;&quot;&gt;Start&lt;/font&gt;" style="rounded=1;whiteSpace=wrap;html=1;fontSize=12;glass=0;strokeWidth=1;shadow=0;labelBackgroundColor=none;fillColor=#182E3E;strokeColor=#FFFFFF;fontColor=#FFFFFF;" parent="WIyWlLk6GJQsqaUBKTNV-1" vertex="1">
          <mxGeometry x="190" y="80" width="120" height="40" as="geometry" />
        </mxCell>
        <mxCell id="I7HHmySDdxY6au0NM-Y0-7" value="" style="edgeStyle=orthogonalEdgeStyle;rounded=0;orthogonalLoop=1;jettySize=auto;html=1;labelBackgroundColor=none;strokeColor=#23445D;fontColor=default;" edge="1" parent="WIyWlLk6GJQsqaUBKTNV-1" source="I7HHmySDdxY6au0NM-Y0-3" target="I7HHmySDdxY6au0NM-Y0-6">
          <mxGeometry relative="1" as="geometry" />
        </mxCell>
        <mxCell id="I7HHmySDdxY6au0NM-Y0-3" value="&lt;font style=&quot;font-size: 18px;&quot;&gt;Landing Page&lt;/font&gt;" style="shape=process;whiteSpace=wrap;html=1;backgroundOutline=1;labelBackgroundColor=none;fillColor=#182E3E;strokeColor=#FFFFFF;fontColor=#FFFFFF;" vertex="1" parent="WIyWlLk6GJQsqaUBKTNV-1">
          <mxGeometry x="145" y="190" width="210" height="80" as="geometry" />
        </mxCell>
        <mxCell id="I7HHmySDdxY6au0NM-Y0-9" value="" style="edgeStyle=orthogonalEdgeStyle;rounded=0;orthogonalLoop=1;jettySize=auto;html=1;labelBackgroundColor=none;strokeColor=#23445D;fontColor=default;" edge="1" parent="WIyWlLk6GJQsqaUBKTNV-1" source="I7HHmySDdxY6au0NM-Y0-6" target="I7HHmySDdxY6au0NM-Y0-8">
          <mxGeometry relative="1" as="geometry" />
        </mxCell>
        <mxCell id="I7HHmySDdxY6au0NM-Y0-6" value="&lt;div style=&quot;text-align: left;&quot;&gt;&lt;span style=&quot;font-size: 17px; background-color: initial;&quot;&gt;Isi Form :&lt;/span&gt;&lt;/div&gt;&lt;span style=&quot;font-size: 17px;&quot;&gt;&lt;div style=&quot;text-align: left;&quot;&gt;&lt;span style=&quot;background-color: initial;&quot;&gt;- Tujuan&lt;/span&gt;&lt;/div&gt;&lt;div style=&quot;text-align: left;&quot;&gt;&lt;span style=&quot;background-color: initial;&quot;&gt;- Tanggal&lt;/span&gt;&lt;/div&gt;&lt;div style=&quot;text-align: left;&quot;&gt;&lt;span style=&quot;background-color: initial;&quot;&gt;- Kelas&lt;/span&gt;&lt;/div&gt;&lt;div style=&quot;text-align: left;&quot;&gt;&lt;span style=&quot;background-color: initial;&quot;&gt;- Jumlah Penumpang&lt;/span&gt;&lt;/div&gt;&lt;/span&gt;" style="shape=parallelogram;perimeter=parallelogramPerimeter;whiteSpace=wrap;html=1;fixedSize=1;labelBackgroundColor=none;fillColor=#182E3E;strokeColor=#FFFFFF;fontColor=#FFFFFF;" vertex="1" parent="WIyWlLk6GJQsqaUBKTNV-1">
          <mxGeometry x="120" y="340" width="260" height="150" as="geometry" />
        </mxCell>
        <mxCell id="I7HHmySDdxY6au0NM-Y0-11" value="" style="edgeStyle=orthogonalEdgeStyle;rounded=0;orthogonalLoop=1;jettySize=auto;html=1;labelBackgroundColor=none;strokeColor=#23445D;fontColor=default;" edge="1" parent="WIyWlLk6GJQsqaUBKTNV-1" source="I7HHmySDdxY6au0NM-Y0-8" target="I7HHmySDdxY6au0NM-Y0-10">
          <mxGeometry relative="1" as="geometry" />
        </mxCell>
        <mxCell id="I7HHmySDdxY6au0NM-Y0-13" value="" style="edgeStyle=orthogonalEdgeStyle;rounded=0;orthogonalLoop=1;jettySize=auto;html=1;labelBackgroundColor=none;strokeColor=#23445D;fontColor=default;" edge="1" parent="WIyWlLk6GJQsqaUBKTNV-1" source="I7HHmySDdxY6au0NM-Y0-8" target="I7HHmySDdxY6au0NM-Y0-6">
          <mxGeometry relative="1" as="geometry">
            <mxPoint x="40" y="340" as="targetPoint" />
            <Array as="points">
              <mxPoint x="11" y="650" />
              <mxPoint x="11" y="415" />
            </Array>
          </mxGeometry>
        </mxCell>
        <mxCell id="I7HHmySDdxY6au0NM-Y0-8" value="&lt;span style=&quot;font-size: 16px;&quot;&gt;Tidak / Tersedia?&lt;/span&gt;" style="rhombus;whiteSpace=wrap;html=1;labelBackgroundColor=none;fillColor=#182E3E;strokeColor=#FFFFFF;fontColor=#FFFFFF;" vertex="1" parent="WIyWlLk6GJQsqaUBKTNV-1">
          <mxGeometry x="162.5" y="570" width="175" height="160" as="geometry" />
        </mxCell>
        <mxCell id="I7HHmySDdxY6au0NM-Y0-18" value="" style="edgeStyle=orthogonalEdgeStyle;rounded=0;orthogonalLoop=1;jettySize=auto;html=1;labelBackgroundColor=none;strokeColor=#23445D;fontColor=default;" edge="1" parent="WIyWlLk6GJQsqaUBKTNV-1" source="I7HHmySDdxY6au0NM-Y0-10">
          <mxGeometry relative="1" as="geometry">
            <mxPoint x="557.5999999999999" y="810" as="targetPoint" />
          </mxGeometry>
        </mxCell>
        <mxCell id="I7HHmySDdxY6au0NM-Y0-10" value="&lt;font style=&quot;font-size: 17px;&quot;&gt;Memilih pesawat dan membandingkan harga&lt;/font&gt;" style="whiteSpace=wrap;html=1;labelBackgroundColor=none;fillColor=#182E3E;strokeColor=#FFFFFF;fontColor=#FFFFFF;" vertex="1" parent="WIyWlLk6GJQsqaUBKTNV-1">
          <mxGeometry x="450" y="595" width="215" height="110" as="geometry" />
        </mxCell>
        <mxCell id="I7HHmySDdxY6au0NM-Y0-16" value="&lt;font style=&quot;font-size: 19px;&quot;&gt;Alert : Tidak Tersedia&lt;/font&gt;" style="rounded=0;whiteSpace=wrap;html=1;labelBackgroundColor=none;fillColor=#182E3E;strokeColor=#FFFFFF;fontColor=#FFFFFF;" vertex="1" parent="WIyWlLk6GJQsqaUBKTNV-1">
          <mxGeometry x="-40" y="510" width="120" height="60" as="geometry" />
        </mxCell>
        <mxCell id="I7HHmySDdxY6au0NM-Y0-22" value="" style="edgeStyle=orthogonalEdgeStyle;rounded=0;orthogonalLoop=1;jettySize=auto;html=1;labelBackgroundColor=none;strokeColor=#23445D;fontColor=default;" edge="1" parent="WIyWlLk6GJQsqaUBKTNV-1" source="I7HHmySDdxY6au0NM-Y0-20">
          <mxGeometry relative="1" as="geometry">
            <mxPoint x="567.5" y="1010" as="targetPoint" />
          </mxGeometry>
        </mxCell>
        <mxCell id="I7HHmySDdxY6au0NM-Y0-20" value="&lt;font style=&quot;font-size: 17px;&quot;&gt;Melakukan Pembayaran&lt;/font&gt;" style="whiteSpace=wrap;html=1;labelBackgroundColor=none;fillColor=#182E3E;strokeColor=#FFFFFF;fontColor=#FFFFFF;" vertex="1" parent="WIyWlLk6GJQsqaUBKTNV-1">
          <mxGeometry x="460" y="810" width="215" height="110" as="geometry" />
        </mxCell>
        <mxCell id="I7HHmySDdxY6au0NM-Y0-23" value="&lt;font style=&quot;font-size: 23px;&quot;&gt;End&lt;/font&gt;" style="rounded=1;whiteSpace=wrap;html=1;fontSize=12;glass=0;strokeWidth=1;shadow=0;labelBackgroundColor=none;fillColor=#182E3E;strokeColor=#FFFFFF;fontColor=#FFFFFF;" vertex="1" parent="WIyWlLk6GJQsqaUBKTNV-1">
          <mxGeometry x="510" y="1010" width="120" height="40" as="geometry" />
        </mxCell>
        <mxCell id="I7HHmySDdxY6au0NM-Y0-24" value="&lt;font style=&quot;font-size: 19px;&quot;&gt;Tersedia&lt;/font&gt;" style="text;html=1;strokeColor=none;fillColor=none;align=center;verticalAlign=middle;whiteSpace=wrap;rounded=0;labelBackgroundColor=none;fontColor=#000000;" vertex="1" parent="WIyWlLk6GJQsqaUBKTNV-1">
          <mxGeometry x="360" y="620" width="60" height="30" as="geometry" />
        </mxCell>
        <mxCell id="I7HHmySDdxY6au0NM-Y0-25" value="&lt;font style=&quot;font-size: 20px;&quot;&gt;Tidak&lt;/font&gt;" style="text;html=1;strokeColor=none;fillColor=none;align=center;verticalAlign=middle;whiteSpace=wrap;rounded=0;labelBackgroundColor=none;fontColor=#000000;" vertex="1" parent="WIyWlLk6GJQsqaUBKTNV-1">
          <mxGeometry x="60" y="620" width="60" height="30" as="geometry" />
        </mxCell>
      </root>
    </mxGraphModel>
  </diagram>
</mxfile>
